# Blender 4.3.2
# www.blender.org
mtllib lighter.mtl
o lighter
v -1.231053 0.000000 0.184955
v 0.000000 0.000000 0.758551
v 0.000000 -0.000000 -0.758551
v -1.129344 -0.000000 -0.322050
v 0.374618 6.710094 0.580213
v 0.020357 7.384760 -0.731631
v 1.114716 0.000000 0.351591
v 1.077621 6.556001 0.392900
v 1.202318 -0.000000 -0.252601
v 1.222978 6.556001 -0.257498
v 0.418199 6.556001 -0.715601
v -0.695558 7.385662 0.624677
v -0.404164 7.399700 0.497637
v -0.571519 7.399633 -0.308150
v -1.170941 7.402880 0.144207
v -0.981051 7.399700 -0.249734
v -0.414761 6.739381 0.475685
v -1.056956 7.398467 -0.407274
v 0.075458 7.403738 0.638949
v -0.384929 6.736233 -0.504932
v 0.352302 6.743139 -0.512138
v 0.081047 7.389869 -0.513000
v -0.557563 7.399700 0.221887
v -0.589631 7.111101 0.233119
v -0.981051 7.111101 0.249733
v -1.070069 7.111101 -0.188332
v -0.557563 7.111101 -0.221888
v 1.136210 6.935925 -0.254622
v 0.548753 6.824203 -0.490137
v 1.094033 6.803396 -0.229757
v 0.634664 6.874552 -0.290209
v 1.056322 6.801857 0.265083
v 1.066799 6.543383 -0.213350
v 0.645662 6.543384 -0.347192
v 1.005964 6.931500 0.361528
v 0.548683 6.824273 0.490211
v 0.620367 6.847243 0.293144
v 1.018434 6.543402 0.254355
v 0.589163 6.543436 0.358411
v -0.428156 6.799268 0.273999
v -0.294848 7.482586 0.273999
v -0.266165 7.505468 -0.274001
v -0.460372 6.984285 -0.274001
v 0.256429 7.556049 0.273999
v 0.316086 7.527317 -0.274001
v 0.602495 7.087212 0.273999
v 0.602494 7.050480 -0.274001
v 0.256428 6.581651 -0.274000
v -0.198960 6.610421 -0.274000
v 0.111356 6.515043 0.273999
v -0.324207 6.718279 0.472199
v -0.273453 7.437271 0.472199
v 0.485614 6.773721 0.472199
v 0.343928 7.474514 0.472199
v -0.226803 7.474470 -0.472201
v -0.368327 6.773599 -0.472201
v 0.390570 7.437325 -0.472201
v 0.441426 6.718326 -0.472201
vn -0.5717 -0.6324 -0.5228
vn 0.0312 -0.6314 -0.7749
vn -0.7330 -0.5793 0.3567
vn -0.6023 0.5885 -0.5393
vn 0.2585 0.6617 -0.7038
vn 0.3398 0.8927 -0.2960
vn -0.3136 0.6364 0.7048
vn 0.6436 0.7455 0.1733
vn 0.1238 0.9922 -0.0165
vn 0.7841 0.6045 0.1404
vn 0.0177 0.9997 0.0169
vn 0.0035 0.9996 -0.0268
vn 0.5624 0.6529 0.5073
vn -0.6319 0.7727 -0.0607
vn 0.4013 0.0463 0.9148
vn 0.9034 -0.0011 0.4289
vn 0.5449 0.5768 0.6086
vn -0.0582 -0.0002 0.9983
vn 0.4468 0.3187 -0.8359
vn -0.5764 0.2477 0.7787
vn -0.5887 0.6255 0.5121
vn -0.3017 0.9129 -0.2749
vn 0.5668 0.6333 0.5270
vn 0.2408 0.8532 0.4627
vn -0.5267 0.5607 -0.6389
vn 0.3457 0.6070 -0.7156
vn -0.7127 0.3197 -0.6244
vn -0.6039 -0.2337 -0.7620
vn -0.6896 0.7224 0.0519
vn 0.4851 0.4962 0.7200
vn -0.7314 0.6778 -0.0756
vn -0.6068 0.3475 0.7148
vn 0.8493 -0.2214 0.4792
vn -0.7118 -0.1970 0.6741
vn -0.9285 -0.3525 0.1169
vn -0.3969 -0.8819 -0.2543
vn 0.1545 -0.9494 0.2735
vn -0.5756 -0.5271 0.6252
vn 0.9766 0.0232 0.2139
vn 0.6837 -0.5228 0.5091
vn 0.3335 0.9378 0.0967
vn 0.5852 0.7851 0.2028
vn 0.9814 -0.0327 -0.1892
vn 0.6591 0.7211 -0.2135
vn 0.4174 0.9047 -0.0860
vn 0.3537 -0.9098 -0.2171
vn 0.5874 -0.5533 -0.5906
vn -0.9869 -0.0250 -0.1596
vn -0.6560 -0.4448 -0.6097
vn -0.0000 -0.0000 1.0000
vn -0.4764 0.4675 0.7446
vn -0.3694 0.5387 -0.7572
vn -0.0000 -0.0000 -1.0000
vn -0.0000 -1.0000 -0.0000
vn 0.5767 -0.6137 0.5393
vn 0.6564 0.5747 0.4887
vn 0.7209 -0.5987 -0.3491
vn 0.7286 0.5613 -0.3925
vn 0.7231 0.1038 -0.6829
vn 0.6824 0.6059 -0.4090
vn 0.8370 -0.2211 -0.5005
vn 0.8433 -0.2107 -0.4944
vn 0.7770 -0.2369 0.5832
vn -0.6476 0.7321 0.2114
vn -0.6011 0.7721 -0.2063
vt 0.014627 0.784084
vt 0.137400 0.735300
vt 0.008358 0.840787
vt 0.184600 0.005400
vt 0.322849 0.005400
vt 0.293600 0.725300
vt 0.230500 0.725300
vt 0.812232 0.837882
vt 0.778469 0.831320
vt 0.867669 0.817616
vt 0.814000 0.854801
vt 0.943187 0.854801
vt 0.820258 0.942206
vt 0.741249 0.944182
vt 0.792746 0.931911
vt 0.870017 0.984632
vt 0.866858 0.962138
vt 0.530726 0.771000
vt 0.585294 0.867571
vt 0.526758 0.868094
vt 0.282400 0.953038
vt 0.250001 0.880600
vt 0.337578 0.956645
vt 0.461026 0.956646
vt 0.463580 0.880232
vt 0.515167 0.953741
vt 0.706637 0.866776
vt 0.699900 0.773200
vt 0.748200 0.774900
vt 0.548499 0.880600
vt 0.953181 0.825383
vt 0.971300 0.986500
vt 0.949097 0.961087
vt 0.050996 0.921663
vt 0.047964 0.955002
vt 0.020500 0.922200
vt 0.154005 0.919895
vt 0.110695 0.953905
vt 0.098049 0.920893
vt 0.597795 0.888613
vt 0.598359 0.937188
vt 0.557422 0.886305
vt 0.854024 0.711399
vt 0.845121 0.744600
vt 0.830700 0.700609
vt 0.787830 0.640311
vt 0.737783 0.644941
vt 0.735527 0.620111
vt 0.979668 0.651322
vt 0.991488 0.593730
vt 0.994918 0.664903
vt 0.944900 0.779836
vt 0.911697 0.796510
vt 0.900909 0.773100
vt 0.798519 0.409430
vt 0.725781 0.384623
vt 0.798954 0.343955
vt 0.804929 0.301546
vt 0.830787 0.340361
vt 0.804100 0.361600
vt 0.806123 0.214209
vt 0.832112 0.243608
vt 0.807061 0.148295
vt 0.833362 0.154935
vt 0.837348 0.167897
vt 0.863300 0.211300
vt 0.836721 0.229404
vt 0.838221 0.102454
vt 0.864330 0.121623
vt 0.839500 0.011200
vt 0.865584 0.028157
vt 0.838861 0.051655
vt 0.960803 0.149380
vt 0.889062 0.136117
vt 0.968732 0.071330
vt 0.894715 0.070395
vt 0.965786 0.308173
vt 0.900106 0.302531
vt 0.979011 0.236381
vt 0.900968 0.228505
vt 0.462358 0.725300
vt 0.403180 0.005400
vt 0.541450 0.005400
vt 0.137400 0.907300
vt 0.676147 0.005400
vt 0.669774 0.725300
vt 0.587400 0.725300
vt 0.257720 0.861229
vt 0.262843 0.794558
vt 0.765400 0.571900
vt 0.937300 0.571900
vt 0.895875 0.641859
vt 0.825762 0.650334
vt 0.719900 0.005400
vt 0.719900 0.725300
vt 0.138700 0.725300
vt 0.035028 0.725300
vt 0.035575 0.005400
vt 0.340000 0.880275
vt 0.746531 0.927185
vt 0.786890 0.875929
vt 0.726914 0.883813
vt 0.457363 0.867846
vt 0.477300 0.771000
vt 0.940645 0.938687
vt 0.647946 0.863641
vt 0.327093 0.864920
vt 0.276600 0.774900
vt 0.324900 0.773200
vt 0.166651 0.952945
vt 0.216695 0.918798
vt 0.213804 0.952062
vt 0.244200 0.951500
vt 0.742010 0.723000
vt 0.796357 0.710527
vt 0.735527 0.748789
vt 0.551482 0.933526
vt 0.975005 0.718750
vt 0.978041 0.786366
vt 0.948347 0.773738
vt 0.944740 0.724645
vt 0.979351 0.731311
vt 0.995060 0.740894
vt 0.991918 0.809434
vt 0.942970 0.685180
vt 0.900500 0.797400
vt 0.826799 0.795040
vt 0.828400 0.768200
vt 0.900500 0.768200
vt 0.972668 0.658527
vt 0.942020 0.612263
vt 0.970539 0.597332
vt 0.728281 0.022634
vt 0.801230 0.015790
vt 0.800635 0.095970
vt 0.727693 0.096183
vt 0.800119 0.168128
vt 0.727181 0.173455
vt 0.799590 0.247971
vt 0.726712 0.244213
vt 0.726181 0.324332
vt 0.834476 0.079585
vt 0.808195 0.072414
vt 0.808961 0.021387
vt 0.835439 0.016889
vt 0.725500 0.427000
vt 0.862119 0.351653
vt 0.835681 0.356371
vt 0.836088 0.304675
vt 0.862631 0.286694
s 1
usemtl 01___Default
f 4/1/1 3/2/2 1/3/3
f 3/4/2 4/5/1 18/6/4 6/7/5
f 13/8/6 12/9/7 19/10/8
f 5/11/9 21/12/10 17/13/11
f 18/14/4 14/15/12 6/16/5
f 22/17/13 6/16/5 14/15/12
f 1/18/3 12/19/7 15/20/14
f 19/21/8 5/22/15 13/23/6
f 14/24/16 20/25/17 22/26/13
f 19/27/8 2/28/18 5/29/15
f 22/26/13 20/25/17 21/30/10
f 5/31/9 11/32/19 21/33/10
f 14/34/20 27/35/21 23/36/22
f 15/37/14 26/38/23 16/39/24
f 24/40/25 27/41/21 25/42/26
f 29/43/27 34/44/28 31/45/29
f 35/46/30 37/47/31 36/48/32
f 35/49/30 36/50/32 32/51/33
f 39/52/34 36/53/32 37/54/31
f 40/55/35 49/56/36 50/57/37
f 50/58/37 51/59/38 40/60/35
f 46/61/39 53/62/40 50/58/37
f 44/63/41 54/64/42 46/61/39
f 47/65/43 57/66/44 45/67/45
f 48/68/46 58/69/47 47/65/43
f 43/70/48 56/71/49 49/72/36
f 53/73/40 54/74/50 51/75/38
f 54/74/50 52/76/51 51/75/38
f 55/77/52 57/78/53 56/79/49
f 57/78/53 58/80/47 56/79/49
f 12/81/7 1/82/3 2/83/18
f 3/2/2 2/84/54 1/3/3
f 2/83/18 7/85/55 8/86/56 5/87/15
f 7/88/55 2/84/54 3/2/2 9/89/57
f 11/90/19 5/91/9 8/92/56 10/93/58
f 7/85/55 9/94/57 10/95/58 8/86/56
f 3/4/2 11/96/19 10/97/58 9/98/57
f 14/24/16 13/23/6 17/99/59 20/25/17
f 18/14/4 16/100/24 14/15/12
f 23/101/22 13/8/6 14/15/20
f 16/100/24 18/14/4 15/102/14
f 5/22/15 17/99/59 13/23/6
f 18/103/4 4/104/1 1/18/3 15/20/14
f 20/105/17 17/13/11 21/12/10
f 12/106/7 2/28/18 19/27/8
f 21/33/10 11/32/19 6/16/5 22/17/13
f 23/101/22 15/102/14 12/9/7 13/8/6
f 6/107/5 11/108/19 3/109/2
f 25/110/26 15/37/14 23/111/22 24/112/25
f 23/111/22 27/113/21 24/112/25
f 27/35/21 14/34/20 16/39/24 26/38/23
f 15/37/14 25/110/26 26/38/23
f 31/114/29 35/46/30 28/115/60 29/116/27
f 25/42/26 27/41/21 26/117/23
f 33/118/61 34/119/28 29/120/27 30/121/62
f 28/122/60 30/123/62 29/124/27
f 30/121/62 32/125/33 33/118/61
f 32/51/33 30/123/62 28/122/60 35/49/30
f 37/126/31 31/127/29 34/128/28 39/129/34
f 31/114/29 37/47/31 35/46/30
f 32/125/33 38/130/63 33/118/61
f 38/130/63 32/125/33 36/131/32 39/132/34
f 43/133/48 40/134/35 41/135/64 42/136/65
f 42/136/65 41/135/64 44/137/41 45/138/45
f 45/138/45 44/137/41 46/139/39 47/140/43
f 47/140/43 46/139/39 50/57/37 48/141/46
f 52/142/51 41/143/64 40/144/35 51/145/38
f 50/57/37 49/56/36 48/141/46
f 40/55/35 43/146/48 49/56/36
f 54/64/42 44/63/41 41/143/64 52/142/51
f 50/58/37 53/62/40 51/59/38
f 46/61/39 54/64/42 53/62/40
f 56/147/49 43/148/48 42/149/65 55/150/52
f 55/150/52 42/149/65 45/67/45 57/66/44
f 58/69/47 48/68/46 49/72/36 56/71/49
f 47/65/43 58/69/47 57/66/44
